<svg id="Layer_1" data-name="Layer 1" xmlns="http://www.w3.org/2000/svg" xmlns:xlink="http://www.w3.org/1999/xlink" viewBox="0 0 272 400"><defs><style>.cls-1{fill:none;}.cls-2{clip-path:url(#clip-path);}.cls-3{fill:#f8b42b;}.cls-3,.cls-4{fill-rule:evenodd;}.cls-4{fill:#273982;}</style><clipPath id="clip-path"><rect class="cls-1" x="47.83" y="46.46" width="189.9" height="301.54"/></clipPath></defs><g class="cls-2"><path class="cls-3" d="M161.06,76.9l6.25-11.47C173.7,53.57,184,47.22,197.57,47c18.27-.35,30.71,11.83,36.78,27.95,4.75,12.64,3.34,22.75-1,32.24L216.18,145c-4,9-15.09,10.28-20.92,2.84l-37-49.11a14.06,14.06,0,0,1-2.56-6.77c-.56-5.45,2.87-10.45,5.34-15Zm0,0"/><path class="cls-4" d="M90.38,204.33,104,177.51,54.56,107.74C51,102.67,49,97.05,48.14,90.24,44.66,63.45,71.23,41,96.86,48c14.22,3.83,22.8,15.55,22.84,15.6,20.36,27.72,40.83,56.49,62.16,83.32a36.8,36.8,0,0,1,7.8,19.59,50.56,50.56,0,0,1-3.46,22.94c-5.26,11.83-12,24-18,35.8-8.87,17.66-11.7,34.64-34.15,42.22s-46-.85-51.72-25c-3.52-14.81,1.47-25.16,8-38Zm26.11-9.77,27.41,38.77a54.34,54.34,0,0,1-3.76,6.63c-5.69,11.36-16.79,13.29-26.19,11.24-13.57-3-16.6-17.87-11.36-29.32l.53-1Zm52.39-12.48-16.25,32.36C125.24,175,97.63,136,69.8,96.75l-.32-.53-.33-.61c-.07-.22-.22-.43-.3-.65-11-23.68,21.14-40.09,35.86-20,2.63,3.57,53.16,72,62.43,83.66,3.92,4.93,4.41,10.7,3.9,15.3a30.47,30.47,0,0,1-2,8Zm0,0"/></g><path class="cls-4" d="M58.27,286.86a2.37,2.37,0,0,0-4.67-.53,9.42,9.42,0,0,0-5.8-2h0A9.71,9.71,0,0,0,39,297.79a9.51,9.51,0,0,0,8.76,5.94h0a9.3,9.3,0,0,0,5.82-2,2.36,2.36,0,0,0,4.65-.56ZM47.78,299a5,5,0,0,1,0-10,4.81,4.81,0,0,1,4,2.18,5,5,0,0,1-4,7.82Zm29.29-1.92a2.34,2.34,0,0,0-1.58.6,5.18,5.18,0,0,1-1.6.95,5.44,5.44,0,0,1-2,.35,5.52,5.52,0,0,1-4.48-2.3,5.25,5.25,0,0,1-.67-1.34,5.19,5.19,0,0,1-.23-1.51c0-4.52,5.63-6.81,9-3.78a2.26,2.26,0,0,0,1.58.61,2.34,2.34,0,0,0,2.34-2.35,2.37,2.37,0,0,0-.76-1.74c-6.41-5.75-16.89-1.37-16.87,7.26a9.67,9.67,0,0,0,.79,3.85A10,10,0,0,0,69,303.27a10.87,10.87,0,0,0,3,.44h0a10.5,10.5,0,0,0,3.62-.65,10.14,10.14,0,0,0,3-1.84,2.35,2.35,0,0,0-1.53-4.12Zm20.07,0a2.34,2.34,0,0,0-1.58.6,5.18,5.18,0,0,1-1.6.95A5.4,5.4,0,0,1,92,299a5.48,5.48,0,0,1-4.47-2.3,5.63,5.63,0,0,1-.68-1.34,5.19,5.19,0,0,1-.23-1.51c0-4.52,5.64-6.81,9-3.78a2.26,2.26,0,0,0,1.58.61,2.36,2.36,0,0,0,1.58-4.09c-6.4-5.75-16.89-1.37-16.87,7.26a9.67,9.67,0,0,0,.79,3.85A10,10,0,0,0,86.4,302,9.82,9.82,0,0,0,89,303.27a10.89,10.89,0,0,0,3,.44h0a10.46,10.46,0,0,0,3.62-.65,10.14,10.14,0,0,0,3-1.84,2.31,2.31,0,0,0,.81-1.76,2.35,2.35,0,0,0-2.34-2.36Zm10.07-3a2.34,2.34,0,0,0,2.35,2.34h8.14a2.33,2.33,0,0,0,2.34-2.34c0-5.5-4-9.84-9.53-9.84h0a9.67,9.67,0,0,0-9.41,9.84,11.37,11.37,0,0,0,.62,3.71,9.37,9.37,0,0,0,1.35,2.46,10.69,10.69,0,0,0,1.48,1.53,10.2,10.2,0,0,0,2.93,1.58,11.48,11.48,0,0,0,3.52.53,10.37,10.37,0,0,0,6.62-2.53h0a0,0,0,0,1,0,0v0a2.26,2.26,0,0,0,.79-1.74,2.33,2.33,0,0,0-2.34-2.34,2.4,2.4,0,0,0-1.58.6,5.46,5.46,0,0,1-1.67,1,5.23,5.23,0,0,1-1.88.37,6.23,6.23,0,0,1-2.36-.42,4.76,4.76,0,0,1-1.21-.71,4.88,4.88,0,0,1-1.2-1.65,5.92,5.92,0,0,1-.45-2.32,5,5,0,0,1,4.73-5.13,4.57,4.57,0,0,1,4.39,2.76h-5.31a2.36,2.36,0,0,0-2.35,2.37Zm21.87-2.83c-.38-.12-1.19-.47-1.33-.82a.49.49,0,0,1,0-.14c0-.67.12-1.3,2-1.3a8,8,0,0,1,3.5,1,2,2,0,0,0,.84.24l.18,0h0a2.36,2.36,0,0,0,1.07-4.45,17.8,17.8,0,0,0-2.2-1c-4.9-1.69-10.1.23-10.1,5.38v0c0,3.46,2.88,5.13,6.25,5.9.76.16,3.13.69,3.4,1.44a.93.93,0,0,1,0,.21c0,1-1.23,1.3-2.28,1.3a7.41,7.41,0,0,1-4.31-1.47h0a2.48,2.48,0,0,0-1.28-.37,2.33,2.33,0,0,0-2.34,2.34,2.36,2.36,0,0,0,1.32,2.14,11.83,11.83,0,0,0,6.63,2c4.41,0,7-2.69,7-6,0-5.41-6.82-6-8.35-6.59Zm17.35,0c-.36-.12-1.18-.47-1.32-.82a.49.49,0,0,1,0-.14c0-.67.12-1.3,2-1.3a8,8,0,0,1,3.51,1,2,2,0,0,0,.83.24l.19,0h0a2.35,2.35,0,0,0,2.34-2.36,2.32,2.32,0,0,0-1.27-2.09,17.16,17.16,0,0,0-2.2-1c-4.9-1.69-10.1.23-10.1,5.38v0c0,3.46,2.88,5.13,6.24,5.9.77.16,3.14.69,3.41,1.44a.93.93,0,0,1,0,.21c0,1-1.23,1.3-2.28,1.3a7.43,7.43,0,0,1-4.31-1.47h0a2.48,2.48,0,0,0-1.28-.37,2.34,2.34,0,0,0-2.35,2.34,2.37,2.37,0,0,0,1.33,2.14,11.83,11.83,0,0,0,6.63,2c4.41,0,7-2.69,7-6,0-5.41-6.82-6-8.36-6.59ZM180,301a2.35,2.35,0,0,0-2.35-2.35,1.38,1.38,0,0,0-.35,0c-1.83.28-3-.05-3-1.88V288.6h3.25a2.35,2.35,0,1,0,0-4.7h-3.25v-4.46a2.34,2.34,0,0,0-4.68,0v4.46h-1.44a2.35,2.35,0,0,0,0,4.7h1.44v8c0,4.36,3,7.42,8.31,6.68H178v0a2.33,2.33,0,0,0,2-2.32Zm21.63-10.62A10,10,0,0,0,198,286a11.21,11.21,0,0,0-2.62-1.23,10.2,10.2,0,0,0-3-.44,10.31,10.31,0,0,0-3.87.76,9.93,9.93,0,0,0-4.38,3.55,9.54,9.54,0,0,0-1.28,2.6,9.14,9.14,0,0,0-.44,2.92,10,10,0,1,0,19.19-3.83Zm-9.22,9a5.08,5.08,0,0,1-4.87-7.1,5.2,5.2,0,0,1,3.29-2.92,5.8,5.8,0,0,1,1.58-.23,5.68,5.68,0,0,1,2.09.41,5.24,5.24,0,0,1,2.32,1.88,5.25,5.25,0,0,1,.91,2.83,5.23,5.23,0,0,1-5.32,5.13Zm0,0"/><path class="cls-4" d="M54,316.57H49.75v-1.72s-.06-1.57.6-2.12a4.54,4.54,0,0,1,3.37-.48h0c.12,0,.23,0,.39,0a3.06,3.06,0,0,0,.42-6.08h-.12c-3.59-.49-6.39.24-8.35,2.13A9,9,0,0,0,43.67,315v1.6H41.8a3,3,0,0,0,0,6.08h1.87v14.52a3,3,0,0,0,6.08,0V322.65H54a2.28,2.28,0,0,0,.63-.06,3,3,0,0,0,2-1.47s0,0,.06-.07a.09.09,0,0,1,0-.06l.09-.21s0-.06,0-.12a.23.23,0,0,0,.06-.15l0,0a4.06,4.06,0,0,0,.12-.87,3.06,3.06,0,0,0-3.07-3Zm21.29,20.78a3.06,3.06,0,0,0-3-3.08c-.15,0-.3,0-.42,0-1.63.21-2.83.05-3.4-.49a2.82,2.82,0,0,1-.6-1.83l0-.1V309.4a3.06,3.06,0,0,0-6.12,0v22.2a8.69,8.69,0,0,0,2.44,6.62,8.89,8.89,0,0,0,6.36,2.29,15.88,15.88,0,0,0,2-.15h.09a3,3,0,0,0,2.65-3Zm24.29-7.85V318.6a3.06,3.06,0,1,0-6.12,0v10.9c0,5.46-8.19,6.73-9.84,1.42a4.11,4.11,0,0,1-.25-1.42V318.33a3.05,3.05,0,0,0-6.08,0V329.5c0,8.45,9.25,13.6,16.63,9.53a3.09,3.09,0,0,0,2.62,1.48,3,3,0,0,0,3-3.05Zm7-17a3.06,3.06,0,0,0,0-6.11,3.06,3.06,0,1,0,0,6.11Zm0,3.16a3.06,3.06,0,0,0-3.07,3v18.47a3.06,3.06,0,0,0,6.12,0V318.7a3,3,0,0,0-3.05-3Zm31.82-6.08a3,3,0,0,0-6.09,0v7.8a12.07,12.07,0,0,0-6.59-1.93A12.31,12.31,0,0,0,115.5,321c-5.48,8.32.3,19.64,10.27,19.64a12.28,12.28,0,0,0,6.83-2.11,3,3,0,0,0,2.78,1.81,3.06,3.06,0,0,0,3-3.07Zm-12.65,25A6.37,6.37,0,0,1,119.5,328a6.22,6.22,0,0,1,11.42-3.64c2.83,4.3-.15,10.15-5.15,10.15ZM174.23,332a3,3,0,0,0-2,.79,7.28,7.28,0,0,1-2.08,1.23,7,7,0,0,1-2.53.45,7.11,7.11,0,0,1-5.81-3,6.3,6.3,0,0,1-1.18-3.71c0-5.86,7.32-8.84,11.72-4.9a2.94,2.94,0,0,0,2,.79,3.05,3.05,0,0,0,2.05-5.31c-8.31-7.47-21.92-1.77-21.89,9.42a12.58,12.58,0,0,0,5.78,10.63,12.32,12.32,0,0,0,3.4,1.6,13.81,13.81,0,0,0,3.86.57h0a13.72,13.72,0,0,0,4.7-.84,13.38,13.38,0,0,0,3.94-2.38,3,3,0,0,0-2-5.36ZM201.29,339l.09-.1.09-.15s0-.09.06-.12a.23.23,0,0,0,.06-.12c0-.06.06-.09.06-.15s0-.09.06-.12l.06-.15c0-.06,0-.09,0-.12s0-.12,0-.18l0-.12a.38.38,0,0,1,0-.18v-.6s0,0,0-.06a.47.47,0,0,0,0-.21c0-.07,0-.1,0-.16s0-.09,0-.15-.06-.09-.06-.15,0-.09-.06-.12,0-.12-.06-.15,0-.09-.06-.12a1.3,1.3,0,0,0-.12-.21s0,0,0-.06-.12-.15-.18-.24l-6-7.2,6-7.23a3.08,3.08,0,0,0,.69-1.95,3,3,0,0,0-3-3.05,3,3,0,0,0-2.35,1.12h0l-5.24,6.32L186,316.9a3,3,0,0,0-5.39,1.93,2.92,2.92,0,0,0,.69,1.95l6,7.23-6,7.2-.18.24s0,0,0,.06a.48.48,0,0,0-.12.21.16.16,0,0,0-.06.12.66.66,0,0,0-.09.15l0,.12c0,.06-.06.09-.06.15a.38.38,0,0,0,0,.18s0,.06,0,.13a1.84,1.84,0,0,0-.06.23v.64a.22.22,0,0,0,0,.15v.15c0,.06,0,.12.06.18a.23.23,0,0,0,0,.12.51.51,0,0,0,.06.15s0,.09,0,.12l.06.15a.23.23,0,0,1,.06.12l.09.12c0,.07,0,.09.06.15l.09.1.09.14a.38.38,0,0,0,.09.09l.12.13a.36.36,0,0,0,.15.12.2.2,0,0,0,.06.09l.06,0a.68.68,0,0,0,.18.13s.06.06.09.06a.66.66,0,0,0,.15.09l.09.06.16.09a.17.17,0,0,1,.11,0l.16.06.12,0a.27.27,0,0,0,.15,0,.21.21,0,0,0,.12,0,.38.38,0,0,0,.18,0,.11.11,0,0,1,.09,0h.6l0,0a.75.75,0,0,0,.24,0h.06l.24-.06s0,0,.06,0l.24-.09h0c.09,0,.15-.09.24-.12h0c.15-.09.31-.22.46-.33h0l.18-.18a0,0,0,0,1,0,0l.18-.18v0l5.27-6.32,5.24,6.32,0,0,.15.18s0,0,0,0,.15.11.21.18h0a2,2,0,0,0,.45.33h0l.21.12h.06l.25.09a.07.07,0,0,0,.05,0c.07,0,.16,0,.25.06h0a.8.8,0,0,0,.27,0,0,0,0,0,0,0,0h.57a.11.11,0,0,1,.09,0,.59.59,0,0,0,.21,0,.11.11,0,0,0,.09,0,.38.38,0,0,0,.18,0l.09,0c.06,0,.12,0,.18-.06a.11.11,0,0,1,.09,0l.16-.09s.09,0,.11-.06a.57.57,0,0,1,.16-.09s.05,0,.09-.06a.48.48,0,0,1,.14-.09s0-.06.07-.06l.06-.07.18-.14a.73.73,0,0,0,.09-.13l.09-.09Zm0,0"/></svg>